:SAMPLES-PER-SECOND 30
:FULLY-SPECIFIED
:DEGREES
148
root  34.80754462 36.54841626 -14.28422252 9.898280144 -3.024478436 4.866573334
lowerback  -7.48663044 -0.1763730496 -0.6541650295
upperback  -4.139279842 0.4023309946 -4.92730999
thorax  -0.05104809999 0.4000790119 -4.70773983
lowerneck  -4.025090218 -16.40270042 -10.69040012
upperneck  7.43321991 -22.3934021 11.8906002
head  5.424233437 -10.73102379 3.522526264
lclavicle  0 -4.497500157e-015 -2.743230041e-014
lhumerus  -47.64030075 30.07099915 60.67010117
lradius  0.006620147731 -6.507048965e-006 28.89729881
lwrist  4.824992743e-007 -3.790274832e-007 -30.83459854
lhand  -3.515303981e-031 -36.94309998 -10.68309975
lfingers  90 7.125020027 -90
lthumb  94.8380127 -25.51723671 101.1159134
rclavicle  0 -4.497500157e-015 -2.743230041e-014
rhumerus  36.97370529 -46.57849884 -34.69010544
rradius  -5.16745672e-007 2.214343908e-008 45.04370117
rwrist  -2.867388866e-005 0.08268648386 -162.9649963
rhand  -3.091416003e-031 4.99296999 -6.562530041
rfingers  -90 -7.125020027 -90
rthumb  -84.43170166 -9.404539108 -59.17832184
rfemur  -12.00751972 14.41587257 11.84930038
rtibia  -1.342962742 -1.806601644 19.85588646
rfoot  0.7219148874 -21.83926582 -35.81505585
rtoes  3.999514103 19.60330009 -101.7668457
lfemur  -3.774825096 -17.67002869 -23.85726738
ltibia  7.214626312 -0.9121552706 6.644073009
lfoot  0.7403460145 -20.4377861 36.1828537
ltoes  -8.641863823 -18.10592461 -116.0607758
149
root  34.80997161 36.54801677 -14.28967423 9.896180153 -2.976821184 4.874571323
lowerback  -7.514560223 -0.1736380309 -0.6473023295
upperback  -4.135900021 0.4090499878 -4.945690155
thorax  -0.03151860088 0.4042769969 -4.730420113
lowerneck  -4.010069847 -16.40469933 -10.72369957
upperneck  7.457950115 -22.39920044 11.90229988
head  5.430109024 -10.73409462 3.523654461
lclavicle  0 -4.497500157e-015 -2.743230041e-014
lhumerus  -47.6352005 30.06979942 60.61800003
lradius  0.006620147731 -6.507048965e-006 28.87939835
lwrist  4.824992743e-007 -3.790274832e-007 -30.8701992
lhand  -3.518155057e-031 -36.94720078 -10.64820004
lfingers  90 7.125020027 -90
lthumb  94.83245087 -25.48285866 101.1170273
rclavicle  0 -4.497500157e-015 -2.743230041e-014
rhumerus  37.08069611 -46.63249969 -34.47299576
rradius  -5.16745672e-007 2.214343908e-008 44.39020157
rwrist  -2.867388866e-005 0.08268648386 -163.2149963
rhand  -3.083488745e-031 5.315100193 -6.676799774
rfingers  -90 -7.125020027 -90
rthumb  -84.41111755 -9.325634956 -58.87330246
rfemur  -12.01441383 14.40547657 11.85806274
rtibia  -1.359182119 -1.803907871 19.89218712
rfoot  0.7089337707 -21.83525085 -35.82481766
rtoes  3.996418953 19.60330009 -101.7519073
lfemur  -3.858160257 -17.72687721 -23.83512497
ltibia  7.15342474 -0.9353003502 6.791069984
lfoot  0.7353073359 -20.43995476 36.14202881
ltoes  -8.633038521 -18.10441208 -116.0323792
150
root  34.81322762 36.54765031 -14.29316753 9.888973236 -2.933858633 4.905435085
lowerback  -7.506919861 -0.137536943 -0.5572147965
upperback  -4.135276318 0.4552209973 -5.002960205
thorax  -0.03257460147 0.4269579947 -4.838600159
lowerneck  -3.998539925 -16.44009972 -10.69219971
upperneck  7.501140118 -22.45200157 11.87759972
head  5.448533535 -10.75854206 3.513849258
lclavicle  0 -4.497500157e-015 -2.743230041e-014
lhumerus  -47.59220123 30.04660034 60.54499817
lradius  0.006620147731 -6.507048965e-006 28.88129807
lwrist  4.824992743e-007 -3.790274832e-007 -30.98920059
lhand  -3.513412468e-031 -36.9654007 -10.70269966
lfingers  90 7.125020027 -90
lthumb  94.85264587 -25.53563309 101.1415482
rclavicle  0 -4.497500157e-015 -2.743230041e-014
rhumerus  37.01399612 -46.68320084 -34.12630081
rradius  -5.16745672e-007 2.214343908e-008 43.82220078
rwrist  -2.867388866e-005 0.08268648386 -163.279007
rhand  -3.078901996e-031 5.48183012 -6.743000031
rfingers  -90 -7.125020027 -90
rthumb  -84.40422058 -9.279186249 -58.71612549
rfemur  -12.0376482 14.43964863 11.8361578
rtibia  -1.388158321 -1.812220216 19.94276047
rfoot  0.6664729714 -21.8275795 -35.91439056
rtoes  3.993380547 19.60330009 -101.7494736
lfemur  -3.868026018 -17.78103256 -23.86523628
ltibia  7.151098728 -0.9492191076 6.792131901
lfoot  0.7313462496 -20.41727829 36.13144684
ltoes  -8.638437271 -18.10751724 -116.0497513
151
root  34.81603908 36.54737097 -14.29717297 9.884796143 -2.900732994 4.914399624
lowerback  -7.508559704 -0.1292489618 -0.5546246767
upperback  -4.136034966 0.4679810107 -5.017879963
thorax  -0.03240000084 0.4338980019 -4.854849815
lowerneck  -4.016540051 -16.45299911 -10.69579983
upperneck  7.562699795 -22.47089767 11.84490013
head  5.467319965 -10.76710033 3.496900082
lclavicle  0 -4.497500157e-015 -2.743230041e-014
lhumerus  -47.57600021 30.04669952 60.51839828
lradius  0.006620147731 -6.507048965e-006 28.84880257
lwrist  4.824992743e-007 -3.790274832e-007 -31.01640129
lhand  -3.498362408e-031 -37.3423996 -10.82909966
lfingers  90 7.125020027 -90
lthumb  95.05768585 -25.64579582 101.5569153
rclavicle  0 -4.497500157e-015 -2.743230041e-014
rhumerus  37.17860031 -46.84129715 -34.08879852
rradius  -5.16745672e-007 2.214343908e-008 43.1882019
rwrist  -2.867388866e-005 0.08268648386 -163.3659973
rhand  -3.069972561e-031 5.55700016 -6.874619961
rfingers  -90 -7.125020027 -90
rthumb  -84.4548111 -9.171331406 -58.65379715
rfemur  -12.02669716 14.45481205 11.82801056
rtibia  -1.400800347 -1.82199347 19.92867661
rfoot  0.6643424034 -21.81178856 -35.96344376
rtoes  3.99062705 19.60330009 -101.7403641
lfemur  -4.058876038 -17.74507332 -23.79382324
ltibia  7.015091896 -0.8386086226 7.084699631
lfoot  0.8052427769 -20.81412506 36.16590881
ltoes  -8.618808746 -18.11662483 -115.9866104
